<svg xmlns="http://www.w3.org/2000/svg" xml:space="preserve" width="1555px" height="800px" version="1.1" style="shape-rendering:geometricPrecision; text-rendering:geometricPrecision; image-rendering:optimizeQuality; fill-rule:evenodd; clip-rule:evenodd"
viewBox="0 0 1555 800"
 xmlns:xlink="http://www.w3.org/1999/xlink">
  <polygon id="map_polygon" points="12,434 22,437 29,438 39,438 47,431 50,424 56,419 62,420 65,424 65,431 67,436 71,437 74,434 80,436 86,438 93,434 92,442 97,446 100,452 101,456 107,452 118,472 113,477 115,481 114,487 118,493 124,488 127,491 130,486 140,487 144,490 144,495 139,504 140,510 138,512 135,512 131,518 148,518 154,515 166,508 172,499 177,491 184,489 192,477 195,467 193,458 188,453 190,442 190,438 187,430 195,428 198,431 196,433 196,439 201,443 212,444 220,436 223,434 228,435 254,446 256,450 264,450 266,449 276,445 285,451 276,457 279,460 288,464 299,477 297,482 298,488 304,489 315,489 320,490 326,488 341,479 349,479 350,483 349,488 356,489 360,485 368,476 382,476 386,472 384,469 381,467 390,457 395,455 402,457 406,458 414,456 420,453 424,448 426,439 434,432 443,434 460,434 474,437 477,435 479,431 499,427 537,429 546,429 552,421 553,409 548,405 547,400 550,398 559,392 559,398 556,402 559,408 568,405 572,404 582,407 595,403 598,406 600,414 611,423 621,423 635,412 648,409 661,413 666,412 665,418 676,429 672,432 669,437 669,445 671,449 679,452 695,467 703,473 706,469 712,473 717,471 722,463 720,457 719,449 722,447 722,441 723,437 729,426 729,416 723,403 717,398 710,401 703,400 698,399 692,395 697,388 698,381 713,358 707,351 701,335 684,322 683,312 666,293 661,284 663,276 667,275 672,268 680,264 688,252 700,249 707,244 710,243 722,233 748,224 772,220 799,197 800,193 801,186 804,182 804,169 807,162 808,156 805,151 805,147 803,143 808,138 818,137 828,138 837,142 844,144 851,150 858,155 861,155 861,148 862,144 870,143 874,137 877,127 878,119 877,113 876,106 880,103 876,101 873,98 873,92 879,83 885,83 891,86 899,92 912,99 918,108 921,111 923,115 919,117 917,120 919,126 924,131 930,134 940,135 959,137 980,144 984,142 989,138 997,134 1001,130 1004,119 1007,117 1010,121 1022,128 1034,123 1036,126 1037,130 1041,129 1046,133 1047,136 1051,137 1055,133 1056,106 1069,92 1070,85 1073,82 1074,76 1080,75 1088,76 1097,80 1102,80 1105,75 1102,69 1103,64 1107,44 1107,29 1106,16 1108,11 1109,6 1113,5 1128,9 1140,9 1142,16 1142,27 1149,26 1153,23 1161,22 1164,16 1166,10 1169,14 1178,14 1205,24 1217,34 1230,38 1248,47 1262,47 1270,42 1278,43 1279,48 1286,49 1287,53 1293,52 1295,59 1299,57 1300,61 1320,75 1330,80 1345,78 1353,78 1380,81 1387,83 1395,69 1402,58 1405,59 1411,59 1417,57 1424,61 1442,65 1446,77 1459,77 1471,83 1477,83 1486,80 1493,87 1496,106 1502,114 1505,119 1505,131 1497,143 1496,147 1489,159 1488,178 1486,184 1487,189 1493,190 1499,195 1498,201 1501,204 1502,208 1510,214 1511,221 1515,235 1515,244 1524,254 1529,254 1537,265 1534,272 1534,277 1537,279 1537,284 1546,288 1552,292 1541,303 1543,307 1541,312 1539,316 1542,320 1539,329 1536,333 1529,335 1526,338 1528,342 1532,343 1535,348 1537,352 1533,355 1535,361 1537,372 1539,380 1543,382 1528,387 1516,389 1508,392 1499,391 1497,384 1493,387 1488,394 1474,393 1468,386 1466,381 1445,373 1439,373 1432,377 1430,385 1419,394 1417,396 1413,392 1408,402 1423,408 1428,407 1443,412 1449,411 1456,416 1459,424 1458,430 1465,435 1466,443 1461,447 1456,450 1457,462 1449,471 1426,482 1421,477 1416,480 1416,491 1414,497 1419,501 1425,516 1423,523 1416,528 1416,533 1413,539 1415,545 1421,547 1420,556 1423,558 1431,555 1434,559 1432,565 1425,572 1425,577 1427,581 1433,584 1430,587 1419,593 1426,595 1432,601 1424,602 1417,604 1411,601 1399,601 1387,600 1385,609 1381,611 1379,620 1370,625 1363,633 1356,643 1350,645 1341,652 1329,655 1328,660 1328,667 1328,679 1329,687 1337,695 1338,703 1332,697 1325,696 1303,688 1282,695 1263,694 1257,690 1257,701 1253,705 1244,705 1234,711 1232,720 1224,723 1212,715 1175,717 1143,715 1128,719 1122,729 1116,723 1108,728 1100,729 1093,735 1085,759 1076,764 1071,762 1063,773 1059,773 1051,780 1045,781 1038,797 1033,798 1026,786 1017,789 1004,779 993,782 951,781 935,769 927,767 918,769 893,758 878,762 861,757 849,757 826,750 819,749 811,744 799,746 791,744 773,748 761,748 743,738 723,734 678,731 661,720 652,722 644,716 634,716 620,717 608,711 598,709 589,704 582,697 577,683 573,681 566,679 562,675 561,668 563,663 564,657 560,649 555,649 549,649 545,645 542,642 533,639 536,634 532,619 531,614 533,609 543,603 550,596 550,588 545,586 535,588 512,598 500,599 490,600 472,612 462,613 454,618 450,618 443,612 436,612 425,609 416,610 409,613 401,607 397,607 386,617 380,617 368,612 359,612 343,616 333,621 326,627 319,634 317,644 312,655 311,662 307,665 304,670 299,675 295,675 286,674 279,675 271,675 265,671 261,671 255,671 251,668 247,668 243,669 241,666 247,661 248,658 228,644 221,645 202,650 197,650 189,644 188,636 189,631 190,627 190,621 180,612 174,603 169,605 158,615 157,618 156,623 153,624 145,624 140,630 138,636 135,641 127,644 121,645 114,645 103,639 96,632 73,623 67,616 69,602 70,598 67,596 67,593 41,583 28,578 11,578 17,571 18,565 18,558 15,552 11,546 7,544 7,541 9,537 9,533 6,527 7,521 2,515 8,506 11,501 17,495 18,488 28,476 30,471 31,460 21,452 16,448 11,438 "/>
</svg>
